<svg width="36" height="36" viewBox="0 0 36 36" fill="none" xmlns="http://www.w3.org/2000/svg">
<path d="M30 9.00006H26.73C26.895 8.53506 27 8.02506 27 7.50006C27.0016 6.53229 26.6908 5.58986 26.1138 4.81295C25.5367 4.03603 24.7243 3.46615 23.7973 3.18806C22.8704 2.90998 21.8784 2.93855 20.969 3.26953C20.0596 3.60051 19.2814 4.21622 18.75 5.02506L18 6.03006L17.25 5.01006C16.44 3.81006 15.075 3.00006 13.5 3.00006C11.01 3.00006 9 5.01006 9 7.50006C9 8.02506 9.105 8.53506 9.27 9.00006H6C4.335 9.00006 3.015 10.3351 3.015 12.0001L3 28.5001C3 30.1651 4.335 31.5001 6 31.5001H30C31.665 31.5001 33 30.1651 33 28.5001V12.0001C33 10.3351 31.665 9.00006 30 9.00006ZM22.5 6.00006C23.325 6.00006 24 6.67506 24 7.50006C24 8.32506 23.325 9.00006 22.5 9.00006C21.675 9.00006 21 8.32506 21 7.50006C21 6.67506 21.675 6.00006 22.5 6.00006ZM13.5 6.00006C14.325 6.00006 15 6.67506 15 7.50006C15 8.32506 14.325 9.00006 13.5 9.00006C12.675 9.00006 12 8.32506 12 7.50006C12 6.67506 12.675 6.00006 13.5 6.00006ZM30 28.5001H6V25.5001H30V28.5001ZM30 21.0001H6V12.0001H13.62L10.5 16.2451L12.93 18.0001L18 11.1001L23.07 18.0001L25.5 16.2451L22.38 12.0001H30V21.0001Z" fill="#EC6C5A"/>
</svg>
