<svg width="24" height="24" viewBox="0 0 24 24" fill="none" xmlns="http://www.w3.org/2000/svg">
<path d="M18.1875 21.8438H15V19.7812H18.1875C18.6102 19.7812 19.0156 19.6133 19.3145 19.3145C19.6133 19.0156 19.7812 18.6102 19.7812 18.1875V15H21.8438V18.1875C21.8426 19.1569 21.4571 20.0862 20.7716 20.7716C20.0862 21.4571 19.1569 21.8426 18.1875 21.8438ZM21.8438 9H19.7812V5.8125C19.7812 5.38981 19.6133 4.98443 19.3145 4.68555C19.0156 4.38666 18.6102 4.21875 18.1875 4.21875H15V2.15625H18.1875C19.1569 2.15737 20.0862 2.54294 20.7716 3.22837C21.4571 3.91381 21.8426 4.84314 21.8438 5.8125V9ZM9 21.8438H5.8125C4.84314 21.8426 3.91381 21.4571 3.22837 20.7716C2.54294 20.0862 2.15737 19.1569 2.15625 18.1875V15H4.21875V18.1875C4.21875 18.6102 4.38666 19.0156 4.68555 19.3145C4.98443 19.6133 5.38981 19.7812 5.8125 19.7812H9V21.8438ZM4.21875 9H2.15625V5.8125C2.15737 4.84314 2.54294 3.91381 3.22837 3.22837C3.91381 2.54294 4.84314 2.15737 5.8125 2.15625H9V4.21875H5.8125C5.38981 4.21875 4.98443 4.38666 4.68555 4.68555C4.38666 4.98443 4.21875 5.38981 4.21875 5.8125V9Z" fill="#040404"/>
</svg>
