<svg width="210" height="32" viewBox="0 0 210 32" fill="none" xmlns="http://www.w3.org/2000/svg">
<path d="M19.7153 3.3835C19.6113 4.3715 19.5333 5.3335 19.4813 6.2695C19.4553 7.1795 19.4423 7.8815 19.4423 8.3755C19.4423 8.9995 19.4553 9.5845 19.4813 10.1305C19.5073 10.6765 19.5333 11.1575 19.5593 11.5735H18.6623C18.4803 9.7535 18.2333 8.3235 17.9213 7.2835C17.6093 6.2175 17.0633 5.4505 16.2833 4.9825C15.5033 4.5145 14.2943 4.2805 12.6563 4.2805H10.1993C9.31527 4.2805 8.63927 4.3585 8.17127 4.5145C7.72927 4.6445 7.43027 4.9435 7.27427 5.4115C7.11827 5.8535 7.04027 6.5555 7.04027 7.5175V26.8615C7.04027 27.7975 7.13127 28.4995 7.31327 28.9675C7.52127 29.4355 7.91127 29.7475 8.48327 29.9035C9.05527 30.0595 9.88727 30.1635 10.9793 30.2155V30.9955C10.3033 30.9435 9.44527 30.9175 8.40527 30.9175C7.36527 30.8915 6.31227 30.8785 5.24627 30.8785C4.23227 30.8785 3.28327 30.8915 2.39927 30.9175C1.51527 30.9175 0.800272 30.9435 0.254272 30.9955V30.2155C1.13827 30.1635 1.80127 30.0595 2.24327 29.9035C2.71127 29.7475 3.02327 29.4355 3.17927 28.9675C3.33527 28.4995 3.41327 27.7975 3.41327 26.8615V7.5175C3.41327 6.5555 3.33527 5.8535 3.17927 5.4115C3.02327 4.9435 2.71127 4.6315 2.24327 4.4755C1.80127 4.2935 1.13827 4.1895 0.254272 4.1635V3.3835C1.52827 3.4095 2.89327 3.4355 4.34927 3.4615C5.80527 3.4875 7.17027 3.5005 8.44427 3.5005C9.74427 3.5005 10.7843 3.5005 11.5643 3.5005C12.7603 3.5005 14.1123 3.5005 15.6203 3.5005C17.1543 3.4745 18.5193 3.4355 19.7153 3.3835ZM13.6703 17.1115C13.6703 17.1115 13.6703 17.2415 13.6703 17.5015C13.6703 17.7615 13.6703 17.8915 13.6703 17.8915H5.87027C5.87027 17.8915 5.87027 17.7615 5.87027 17.5015C5.87027 17.2415 5.87027 17.1115 5.87027 17.1115H13.6703ZM14.4113 11.9635C14.3073 13.4455 14.2553 14.5765 14.2553 15.3565C14.2813 16.1365 14.2943 16.8515 14.2943 17.5015C14.2943 18.1515 14.3073 18.8665 14.3333 19.6465C14.3593 20.4265 14.4243 21.5575 14.5283 23.0395H13.6313C13.5273 22.2075 13.3973 21.4015 13.2413 20.6215C13.1113 19.8155 12.7993 19.1655 12.3053 18.6715C11.8373 18.1515 11.0313 17.8915 9.88727 17.8915V17.1115C11.0313 17.1115 11.8243 16.8125 12.2663 16.2145C12.7343 15.6165 13.0333 14.9145 13.1633 14.1085C13.2933 13.3025 13.4103 12.5875 13.5143 11.9635H14.4113Z" fill="#C0BAB9"/>
<path d="M26.6442 31.2685C24.9542 31.2685 23.7192 30.8525 22.9392 30.0205C22.1852 29.1625 21.8082 28.0315 21.8082 26.6275C21.8082 25.5355 22.0682 24.6385 22.5882 23.9365C23.1342 23.2085 23.8232 22.6235 24.6552 22.1815C25.4872 21.7135 26.3582 21.3235 27.2682 21.0115C28.2042 20.6735 29.0882 20.3485 29.9202 20.0365C30.7522 19.7245 31.4282 19.3735 31.9482 18.9835C32.4942 18.5935 32.7672 18.0995 32.7672 17.5015V15.0835C32.7672 13.9915 32.5982 13.1595 32.2602 12.5875C31.9482 12.0155 31.5192 11.6385 30.9732 11.4565C30.4272 11.2485 29.8162 11.1445 29.1402 11.1445C28.4902 11.1445 27.7882 11.2355 27.0342 11.4175C26.3062 11.5995 25.7212 11.9765 25.2792 12.5485C25.7732 12.6525 26.2022 12.9125 26.5662 13.3285C26.9302 13.7445 27.1122 14.2775 27.1122 14.9275C27.1122 15.5775 26.9042 16.0975 26.4882 16.4875C26.0722 16.8515 25.5392 17.0335 24.8892 17.0335C24.1352 17.0335 23.5762 16.7995 23.2122 16.3315C22.8742 15.8375 22.7052 15.2915 22.7052 14.6935C22.7052 14.0175 22.8742 13.4715 23.2122 13.0555C23.5502 12.6395 23.9792 12.2495 24.4992 11.8855C25.0972 11.4695 25.8642 11.1185 26.8002 10.8325C27.7622 10.5205 28.8412 10.3645 30.0372 10.3645C31.1032 10.3645 32.0132 10.4945 32.7672 10.7545C33.5212 10.9885 34.1452 11.3395 34.6392 11.8075C35.3152 12.4315 35.7572 13.1985 35.9652 14.1085C36.1732 14.9925 36.2772 16.0585 36.2772 17.3065V28.1485C36.2772 28.7725 36.3682 29.2405 36.5502 29.5525C36.7322 29.8385 37.0442 29.9815 37.4862 29.9815C37.8502 29.9815 38.1622 29.9035 38.4222 29.7475C38.7082 29.5915 38.9812 29.3965 39.2412 29.1625L39.6702 29.8255C39.1242 30.2415 38.6042 30.5925 38.1102 30.8785C37.6162 31.1385 36.9532 31.2685 36.1212 31.2685C34.7692 31.2685 33.8722 30.9175 33.4302 30.2155C32.9882 29.5135 32.7672 28.7075 32.7672 27.7975C31.9352 29.1755 30.9862 30.0985 29.9202 30.5665C28.8802 31.0345 27.7882 31.2685 26.6442 31.2685ZM28.3602 29.7085C29.1402 29.7085 29.9072 29.4875 30.6612 29.0455C31.4152 28.5775 32.1172 27.8105 32.7672 26.7445V19.1005C32.3772 19.6725 31.7662 20.1275 30.9342 20.4655C30.1282 20.8035 29.2832 21.1805 28.3992 21.5965C27.5412 21.9865 26.8002 22.5325 26.1762 23.2345C25.5522 23.9105 25.2402 24.8855 25.2402 26.1595C25.2402 27.3555 25.5392 28.2525 26.1372 28.8505C26.7352 29.4225 27.4762 29.7085 28.3602 29.7085Z" fill="#C0BAB9"/>
<path d="M47.823 10.3645C48.863 10.3645 49.747 10.5335 50.475 10.8715C51.203 11.2095 51.736 11.5215 52.074 11.8075C52.932 12.5095 53.452 12.0415 53.634 10.4035H54.531C54.479 11.1315 54.44 12.0025 54.414 13.0165C54.388 14.0045 54.375 15.3435 54.375 17.0335H53.478C53.322 16.0715 53.049 15.1355 52.659 14.2255C52.295 13.3155 51.749 12.5745 51.021 12.0025C50.293 11.4045 49.344 11.1055 48.174 11.1055C47.264 11.1055 46.497 11.3655 45.873 11.8855C45.275 12.3795 44.976 13.1205 44.976 14.1085C44.976 14.8885 45.21 15.5645 45.678 16.1365C46.146 16.6825 46.757 17.2025 47.511 17.6965C48.265 18.1645 49.084 18.6845 49.968 19.2565C51.45 20.2185 52.711 21.1935 53.751 22.1815C54.791 23.1695 55.311 24.4695 55.311 26.0815C55.311 27.2775 54.999 28.2785 54.375 29.0845C53.751 29.8905 52.932 30.5015 51.918 30.9175C50.93 31.3335 49.838 31.5415 48.642 31.5415C48.07 31.5415 47.524 31.4895 47.004 31.3855C46.51 31.3075 46.029 31.1775 45.561 30.9955C45.301 30.8655 45.028 30.7095 44.742 30.5275C44.482 30.3455 44.222 30.1505 43.962 29.9425C43.702 29.7345 43.468 29.7475 43.26 29.9815C43.052 30.1895 42.896 30.6185 42.792 31.2685H41.895C41.947 30.4365 41.986 29.4225 42.012 28.2265C42.038 27.0305 42.051 25.4445 42.051 23.4685H42.948C43.13 24.9245 43.39 26.1985 43.728 27.2905C44.066 28.3825 44.599 29.2405 45.327 29.8645C46.055 30.4625 47.069 30.7615 48.369 30.7615C49.149 30.7615 49.916 30.4885 50.67 29.9425C51.45 29.3965 51.84 28.4345 51.84 27.0565C51.84 25.9125 51.424 24.9765 50.592 24.2485C49.76 23.5205 48.707 22.7535 47.433 21.9475C46.497 21.3495 45.613 20.7515 44.781 20.1535C43.975 19.5555 43.312 18.8795 42.792 18.1255C42.298 17.3715 42.051 16.4615 42.051 15.3955C42.051 14.2255 42.311 13.2765 42.831 12.5485C43.377 11.7945 44.092 11.2485 44.976 10.9105C45.86 10.5465 46.809 10.3645 47.823 10.3645Z" fill="#C0BAB9"/>
<path d="M64.4084 0.458496V15.0445C65.0844 13.2765 66.0204 12.0545 67.2164 11.3785C68.4384 10.7025 69.7124 10.3645 71.0384 10.3645C72.0264 10.3645 72.8454 10.4945 73.4954 10.7545C74.1714 11.0145 74.7304 11.3785 75.1724 11.8465C75.6664 12.3665 76.0174 13.0165 76.2254 13.7965C76.4334 14.5765 76.5374 15.6295 76.5374 16.9555V27.3685C76.5374 28.4605 76.7584 29.2015 77.2004 29.5915C77.6684 29.9815 78.4354 30.1765 79.5014 30.1765V30.9955C79.0594 30.9695 78.3834 30.9435 77.4734 30.9175C76.5634 30.8655 75.6794 30.8395 74.8214 30.8395C73.9634 30.8395 73.1184 30.8655 72.2864 30.9175C71.4804 30.9435 70.8694 30.9695 70.4534 30.9955V30.1765C71.3894 30.1765 72.0524 29.9815 72.4424 29.5915C72.8324 29.2015 73.0274 28.4605 73.0274 27.3685V16.0975C73.0274 15.2915 72.9624 14.5505 72.8324 13.8745C72.7024 13.1985 72.4034 12.6525 71.9354 12.2365C71.4934 11.8205 70.8044 11.6125 69.8684 11.6125C68.2824 11.6125 66.9694 12.2755 65.9294 13.6015C64.9154 14.9015 64.4084 16.5915 64.4084 18.6715V27.3685C64.4084 28.4605 64.6034 29.2015 64.9934 29.5915C65.3834 29.9815 66.0464 30.1765 66.9824 30.1765V30.9955C66.5664 30.9695 65.9424 30.9435 65.1104 30.9175C64.3044 30.8655 63.4724 30.8395 62.6144 30.8395C61.7564 30.8395 60.8724 30.8655 59.9624 30.9175C59.0524 30.9435 58.3764 30.9695 57.9344 30.9955V30.1765C59.0004 30.1765 59.7544 29.9815 60.1964 29.5915C60.6644 29.2015 60.8984 28.4605 60.8984 27.3685V5.1385C60.8984 3.9685 60.6904 3.1105 60.2744 2.5645C59.8584 1.9925 59.0784 1.7065 57.9344 1.7065V0.887498C58.7664 0.965497 59.5724 1.0045 60.3524 1.0045C61.1064 1.0045 61.8214 0.965497 62.4974 0.887498C63.1994 0.783497 63.8364 0.640497 64.4084 0.458496Z" fill="#C0BAB9"/>
<path d="M85.6591 1.1605C86.3351 1.1605 86.9201 1.4075 87.4141 1.9015C87.9081 2.3955 88.1551 2.9805 88.1551 3.6565C88.1551 4.3325 87.9081 4.9175 87.4141 5.4115C86.9201 5.9055 86.3351 6.1525 85.6591 6.1525C84.9831 6.1525 84.3981 5.9055 83.9041 5.4115C83.4101 4.9175 83.1631 4.3325 83.1631 3.6565C83.1631 2.9805 83.4101 2.3955 83.9041 1.9015C84.3981 1.4075 84.9831 1.1605 85.6591 1.1605ZM87.6871 10.4815V27.3685C87.6871 28.4605 87.9081 29.2015 88.3501 29.5915C88.8181 29.9815 89.5851 30.1765 90.6511 30.1765V30.9955C90.2091 30.9695 89.5331 30.9435 88.6231 30.9175C87.7391 30.8655 86.8421 30.8395 85.9321 30.8395C85.0481 30.8395 84.1511 30.8655 83.2411 30.9175C82.3311 30.9435 81.6551 30.9695 81.2131 30.9955V30.1765C82.2791 30.1765 83.0331 29.9815 83.4751 29.5915C83.9431 29.2015 84.1771 28.4605 84.1771 27.3685V15.1615C84.1771 13.9915 83.9691 13.1335 83.5531 12.5875C83.1371 12.0155 82.3571 11.7295 81.2131 11.7295V10.9105C82.0451 10.9885 82.8511 11.0275 83.6311 11.0275C84.3851 11.0275 85.1001 10.9885 85.7761 10.9105C86.4781 10.8065 87.1151 10.6635 87.6871 10.4815Z" fill="#C0BAB9"/>
<path d="M102.194 10.3645C103.858 10.3645 105.353 10.7285 106.679 11.4565C108.005 12.1845 109.058 13.3285 109.838 14.8885C110.644 16.4485 111.047 18.4765 111.047 20.9725C111.047 23.4685 110.644 25.4965 109.838 27.0565C109.058 28.5905 108.005 29.7215 106.679 30.4495C105.353 31.1775 103.858 31.5415 102.194 31.5415C100.556 31.5415 99.0609 31.1775 97.7089 30.4495C96.3829 29.7215 95.3169 28.5905 94.5109 27.0565C93.7309 25.4965 93.3409 23.4685 93.3409 20.9725C93.3409 18.4765 93.7309 16.4485 94.5109 14.8885C95.3169 13.3285 96.3829 12.1845 97.7089 11.4565C99.0609 10.7285 100.556 10.3645 102.194 10.3645ZM102.194 11.1445C100.712 11.1445 99.4899 11.9115 98.5279 13.4455C97.5919 14.9795 97.1239 17.4885 97.1239 20.9725C97.1239 24.4565 97.5919 26.9655 98.5279 28.4995C99.4899 30.0075 100.712 30.7615 102.194 30.7615C103.676 30.7615 104.885 30.0075 105.821 28.4995C106.783 26.9655 107.264 24.4565 107.264 20.9725C107.264 17.4885 106.783 14.9795 105.821 13.4455C104.885 11.9115 103.676 11.1445 102.194 11.1445Z" fill="#C0BAB9"/>
<path d="M127.109 10.3645C128.097 10.3645 128.916 10.4945 129.566 10.7545C130.242 11.0145 130.801 11.3785 131.243 11.8465C131.737 12.3665 132.088 13.0165 132.296 13.7965C132.504 14.5765 132.608 15.6295 132.608 16.9555V27.3685C132.608 28.4605 132.829 29.2015 133.271 29.5915C133.739 29.9815 134.506 30.1765 135.572 30.1765V30.9955C135.13 30.9695 134.454 30.9435 133.544 30.9175C132.634 30.8655 131.75 30.8395 130.892 30.8395C130.034 30.8395 129.189 30.8655 128.357 30.9175C127.551 30.9435 126.94 30.9695 126.524 30.9955V30.1765C127.46 30.1765 128.123 29.9815 128.513 29.5915C128.903 29.2015 129.098 28.4605 129.098 27.3685V16.0975C129.098 15.2915 129.033 14.5505 128.903 13.8745C128.773 13.1985 128.474 12.6525 128.006 12.2365C127.564 11.8205 126.875 11.6125 125.939 11.6125C124.301 11.6125 122.975 12.3015 121.961 13.6795C120.973 15.0315 120.479 16.7085 120.479 18.7105V27.3685C120.479 28.4605 120.674 29.2015 121.064 29.5915C121.454 29.9815 122.117 30.1765 123.053 30.1765V30.9955C122.637 30.9695 122.013 30.9435 121.181 30.9175C120.375 30.8655 119.543 30.8395 118.685 30.8395C117.827 30.8395 116.943 30.8655 116.033 30.9175C115.123 30.9435 114.447 30.9695 114.005 30.9955V30.1765C115.071 30.1765 115.825 29.9815 116.267 29.5915C116.735 29.2015 116.969 28.4605 116.969 27.3685V15.1615C116.969 13.9915 116.761 13.1335 116.345 12.5875C115.929 12.0155 115.149 11.7295 114.005 11.7295V10.9105C114.837 10.9885 115.643 11.0275 116.423 11.0275C117.177 11.0275 117.892 10.9885 118.568 10.9105C119.27 10.8065 119.907 10.6635 120.479 10.4815V15.0835C121.155 13.3155 122.091 12.0935 123.287 11.4175C124.509 10.7155 125.783 10.3645 127.109 10.3645Z" fill="#C0BAB9"/>
<path d="M168.476 3.3835V4.1635C167.592 4.1895 166.916 4.2935 166.448 4.4755C166.006 4.6315 165.707 4.9435 165.551 5.4115C165.395 5.8535 165.317 6.5555 165.317 7.5175V26.8615C165.317 27.7975 165.395 28.4995 165.551 28.9675C165.707 29.4355 166.006 29.7475 166.448 29.9035C166.916 30.0595 167.592 30.1635 168.476 30.2155V30.9955C167.878 30.9435 167.124 30.9175 166.214 30.9175C165.33 30.8915 164.433 30.8785 163.523 30.8785C162.509 30.8785 161.56 30.8915 160.676 30.9175C159.792 30.9175 159.077 30.9435 158.531 30.9955V30.2155C159.415 30.1635 160.078 30.0595 160.52 29.9035C160.988 29.7475 161.3 29.4355 161.456 28.9675C161.612 28.4995 161.69 27.7975 161.69 26.8615V5.4115L161.846 5.5285L152.291 31.1905H151.667L141.839 5.8795V26.4715C141.839 27.4075 141.917 28.1485 142.073 28.6945C142.255 29.2145 142.593 29.5915 143.087 29.8255C143.607 30.0335 144.374 30.1635 145.388 30.2155V30.9955C144.92 30.9435 144.309 30.9175 143.555 30.9175C142.801 30.8915 142.086 30.8785 141.41 30.8785C140.76 30.8785 140.097 30.8915 139.421 30.9175C138.771 30.9175 138.225 30.9435 137.783 30.9955V30.2155C138.667 30.1635 139.33 30.0335 139.772 29.8255C140.24 29.5915 140.552 29.2145 140.708 28.6945C140.864 28.1485 140.942 27.4075 140.942 26.4715V7.5175C140.942 6.5555 140.864 5.8535 140.708 5.4115C140.552 4.9435 140.24 4.6315 139.772 4.4755C139.33 4.2935 138.667 4.1895 137.783 4.1635V3.3835C138.225 3.4095 138.771 3.4355 139.421 3.4615C140.097 3.4875 140.76 3.5005 141.41 3.5005C141.982 3.5005 142.567 3.4875 143.165 3.4615C143.789 3.4355 144.309 3.4095 144.725 3.3835L153.578 26.7055L152.915 27.0175L161.69 3.5005C162.002 3.5005 162.301 3.5005 162.587 3.5005C162.899 3.5005 163.211 3.5005 163.523 3.5005C164.433 3.5005 165.33 3.4875 166.214 3.4615C167.124 3.4355 167.878 3.4095 168.476 3.3835Z" fill="#C0BAB9"/>
<path d="M176.284 31.2685C174.594 31.2685 173.359 30.8525 172.579 30.0205C171.825 29.1625 171.448 28.0315 171.448 26.6275C171.448 25.5355 171.708 24.6385 172.228 23.9365C172.774 23.2085 173.463 22.6235 174.295 22.1815C175.127 21.7135 175.998 21.3235 176.908 21.0115C177.844 20.6735 178.728 20.3485 179.56 20.0365C180.392 19.7245 181.068 19.3735 181.588 18.9835C182.134 18.5935 182.407 18.0995 182.407 17.5015V15.0835C182.407 13.9915 182.238 13.1595 181.9 12.5875C181.588 12.0155 181.159 11.6385 180.613 11.4565C180.067 11.2485 179.456 11.1445 178.78 11.1445C178.13 11.1445 177.428 11.2355 176.674 11.4175C175.946 11.5995 175.361 11.9765 174.919 12.5485C175.413 12.6525 175.842 12.9125 176.206 13.3285C176.57 13.7445 176.752 14.2775 176.752 14.9275C176.752 15.5775 176.544 16.0975 176.128 16.4875C175.712 16.8515 175.179 17.0335 174.529 17.0335C173.775 17.0335 173.216 16.7995 172.852 16.3315C172.514 15.8375 172.345 15.2915 172.345 14.6935C172.345 14.0175 172.514 13.4715 172.852 13.0555C173.19 12.6395 173.619 12.2495 174.139 11.8855C174.737 11.4695 175.504 11.1185 176.44 10.8325C177.402 10.5205 178.481 10.3645 179.677 10.3645C180.743 10.3645 181.653 10.4945 182.407 10.7545C183.161 10.9885 183.785 11.3395 184.279 11.8075C184.955 12.4315 185.397 13.1985 185.605 14.1085C185.813 14.9925 185.917 16.0585 185.917 17.3065V28.1485C185.917 28.7725 186.008 29.2405 186.19 29.5525C186.372 29.8385 186.684 29.9815 187.126 29.9815C187.49 29.9815 187.802 29.9035 188.062 29.7475C188.348 29.5915 188.621 29.3965 188.881 29.1625L189.31 29.8255C188.764 30.2415 188.244 30.5925 187.75 30.8785C187.256 31.1385 186.593 31.2685 185.761 31.2685C184.409 31.2685 183.512 30.9175 183.07 30.2155C182.628 29.5135 182.407 28.7075 182.407 27.7975C181.575 29.1755 180.626 30.0985 179.56 30.5665C178.52 31.0345 177.428 31.2685 176.284 31.2685ZM178 29.7085C178.78 29.7085 179.547 29.4875 180.301 29.0455C181.055 28.5775 181.757 27.8105 182.407 26.7445V19.1005C182.017 19.6725 181.406 20.1275 180.574 20.4655C179.768 20.8035 178.923 21.1805 178.039 21.5965C177.181 21.9865 176.44 22.5325 175.816 23.2345C175.192 23.9105 174.88 24.8855 174.88 26.1595C174.88 27.3555 175.179 28.2525 175.777 28.8505C176.375 29.4225 177.116 29.7085 178 29.7085Z" fill="#C0BAB9"/>
<path d="M197.619 10.9105V11.7295C197.125 11.7295 196.709 11.8465 196.371 12.0805C196.033 12.3145 195.994 12.6395 196.254 13.0555L206.667 28.2265C207.109 28.8765 207.499 29.3445 207.837 29.6305C208.175 29.8905 208.591 30.0725 209.085 30.1765V30.9955C208.825 30.9695 208.422 30.9435 207.876 30.9175C207.356 30.8655 206.836 30.8395 206.316 30.8395C205.51 30.8395 204.639 30.8655 203.703 30.9175C202.793 30.9435 202.13 30.9695 201.714 30.9955V30.1765C202.234 30.1765 202.663 30.0595 203.001 29.8255C203.339 29.5655 203.365 29.2405 203.079 28.8505L192.666 13.6795C192.146 12.9255 191.73 12.4315 191.418 12.1975C191.106 11.9375 190.716 11.7815 190.248 11.7295V10.9105C190.508 10.9365 190.911 10.9755 191.457 11.0275C192.003 11.0535 192.523 11.0665 193.017 11.0665C193.849 11.0665 194.72 11.0535 195.63 11.0275C196.54 10.9755 197.203 10.9365 197.619 10.9105ZM198.672 20.8165C198.672 20.8165 198.724 20.9985 198.828 21.3625C198.958 21.7005 199.023 21.8695 199.023 21.8695L195.786 26.0815C195.11 26.9655 194.746 27.7065 194.694 28.3045C194.668 28.9025 194.915 29.3575 195.435 29.6695C195.955 29.9555 196.67 30.1375 197.58 30.2155V30.9955C197.138 30.9695 196.644 30.9565 196.098 30.9565C195.552 30.9305 195.019 30.9175 194.499 30.9175C194.005 30.8915 193.55 30.8785 193.134 30.8785C191.99 30.8785 191.002 30.9175 190.17 30.9955V30.2155C190.664 30.1635 191.171 29.9425 191.691 29.5525C192.237 29.1365 192.874 28.4475 193.602 27.4855L198.672 20.8165ZM208.305 10.9105V11.6905C207.811 11.7425 207.265 12.0025 206.667 12.4705C206.095 12.9125 205.497 13.5625 204.873 14.4205L200.388 20.6215C200.388 20.6215 200.336 20.4525 200.232 20.1145C200.128 19.7765 200.076 19.6075 200.076 19.6075L203.118 15.3565C203.976 14.1345 204.353 13.2505 204.249 12.7045C204.171 12.1325 203.443 11.7945 202.065 11.6905V10.9105C202.741 10.9365 203.3 10.9625 203.742 10.9885C204.21 11.0145 204.743 11.0275 205.341 11.0275C206.511 11.0275 207.499 10.9885 208.305 10.9105Z" fill="#C0BAB9"/>
</svg>
