<svg width="16" height="15" viewBox="0 0 16 15" fill="none" xmlns="http://www.w3.org/2000/svg">
<path d="M12.5816 14.9375C12.4698 14.938 12.3607 14.9031 12.2698 14.8379L7.99958 11.7421L3.72933 14.8379C3.6381 14.9041 3.52818 14.9395 3.41548 14.9391C3.30278 14.9387 3.19313 14.9025 3.10238 14.8356C3.01164 14.7688 2.94449 14.6748 2.91066 14.5673C2.87683 14.4598 2.87807 14.3444 2.91419 14.2376L4.57966 9.30461L0.263252 6.34455C0.169756 6.28051 0.0991906 6.18824 0.061866 6.08123C0.0245413 5.97423 0.0224138 5.85809 0.0557942 5.74979C0.0891746 5.64149 0.156314 5.5467 0.247402 5.47927C0.338489 5.41185 0.448753 5.37532 0.562081 5.37502H5.8872L7.49423 0.429413C7.52885 0.322639 7.5964 0.229574 7.68719 0.163569C7.77797 0.0975645 7.88733 0.0620117 7.99958 0.0620117C8.11183 0.0620117 8.22119 0.0975645 8.31198 0.163569C8.40277 0.229574 8.47031 0.322639 8.50493 0.429413L10.112 5.37668H15.4371C15.5506 5.37662 15.6611 5.4129 15.7524 5.4802C15.8438 5.54749 15.9112 5.64227 15.9448 5.75066C15.9784 5.85904 15.9764 5.97533 15.9391 6.0825C15.9018 6.18967 15.8312 6.28208 15.7376 6.34621L11.4195 9.30461L13.084 14.2363C13.1109 14.3161 13.1185 14.4012 13.1061 14.4846C13.0937 14.5679 13.0616 14.6471 13.0125 14.7157C12.9634 14.7842 12.8988 14.84 12.8238 14.8786C12.7489 14.9172 12.6659 14.9374 12.5816 14.9375Z" fill="#161616"/>
</svg>
