<svg width="150" height="30" viewBox="0 0 150 30" fill="none" xmlns="http://www.w3.org/2000/svg">
<path d="M7.17841 29.04C5.09841 29.04 3.52541 28.455 2.45941 27.285C1.39341 26.089 0.860413 24.386 0.860413 22.176V20.616H4.91641V22.488C4.91641 24.256 5.65741 25.14 7.13941 25.14C7.86741 25.14 8.41341 24.932 8.77741 24.516C9.16741 24.074 9.36241 23.372 9.36241 22.41C9.36241 21.266 9.10241 20.265 8.58241 19.407C8.06241 18.523 7.10041 17.47 5.69641 16.248C3.92841 14.688 2.69341 13.284 1.99141 12.036C1.28941 10.762 0.938413 9.33196 0.938413 7.74596C0.938413 5.58796 1.48441 3.92396 2.57641 2.75396C3.66841 1.55796 5.25441 0.959961 7.33441 0.959961C9.38841 0.959961 10.9354 1.55796 11.9754 2.75396C13.0414 3.92396 13.5744 5.61396 13.5744 7.82396V8.95496H9.51841V7.55096C9.51841 6.61496 9.33641 5.93896 8.97241 5.52296C8.60841 5.08096 8.07541 4.85996 7.37341 4.85996C5.94341 4.85996 5.22841 5.73096 5.22841 7.47296C5.22841 8.46096 5.48841 9.38396 6.00841 10.242C6.55441 11.1 7.52941 12.14 8.93341 13.362C10.7274 14.922 11.9624 16.339 12.6384 17.613C13.3144 18.887 13.6524 20.382 13.6524 22.098C13.6524 24.334 13.0934 26.05 11.9754 27.246C10.8834 28.442 9.28441 29.04 7.17841 29.04Z" fill="#EB8772"/>
<path d="M21.4162 5.24996H16.9312V1.34996H30.1912V5.24996H25.7062V28.65H21.4162V5.24996Z" fill="#EB8772"/>
<path d="M38.3096 17.028L33.1226 1.34996H37.6856L40.6106 11.373H40.6886L43.6136 1.34996H47.7866L42.5996 17.028V28.65H38.3096V17.028Z" fill="#EB8772"/>
<path d="M51.6692 1.34996H55.9592V24.75H63.0182V28.65H51.6692V1.34996Z" fill="#EB8772"/>
<path d="M67.0254 1.34996H78.7254V5.24996H71.3154V12.465H77.2044V16.365H71.3154V24.75H78.7254V28.65H67.0254V1.34996Z" fill="#EB8772"/>
<path d="M83.1434 1.34996H87.4334V12.855L92.8934 1.34996H97.1834L92.0744 11.373L97.2614 28.65H92.7764L89.1494 16.482L87.4334 19.953V28.65H83.1434V1.34996Z" fill="#EB8772"/>
<path d="M101.242 1.34996H105.532V28.65H101.242V1.34996Z" fill="#EB8772"/>
<path d="M116.74 29.04C114.686 29.04 113.113 28.455 112.021 27.285C110.955 26.115 110.422 24.464 110.422 22.332V7.66796C110.422 5.53596 110.955 3.88496 112.021 2.71496C113.113 1.54496 114.686 0.959961 116.74 0.959961C118.794 0.959961 120.354 1.54496 121.42 2.71496C122.512 3.88496 123.058 5.53596 123.058 7.66796V10.554H119.002V7.39496C119.002 5.70496 118.287 4.85996 116.857 4.85996C115.427 4.85996 114.712 5.70496 114.712 7.39496V22.644C114.712 24.308 115.427 25.14 116.857 25.14C118.287 25.14 119.002 24.308 119.002 22.644V18.471H123.058V22.332C123.058 24.464 122.512 26.115 121.42 27.285C120.354 28.455 118.794 29.04 116.74 29.04Z" fill="#EB8772"/>
<path d="M127.574 1.34996H131.864V12.855L137.324 1.34996H141.614L136.505 11.373L141.692 28.65H137.207L133.58 16.482L131.864 19.953V28.65H127.574V1.34996Z" fill="#EB8772"/>
<path d="M145.863 24.516H149.997V28.65H145.863V24.516Z" fill="#EB8772"/>
</svg>
