<svg width="112" height="22" viewBox="0 0 112 22" fill="none" xmlns="http://www.w3.org/2000/svg">
<path d="M26.3088 4.40711H15.3648V21.9631H10.1208V4.40711H0.12677V0.113108H26.3088V4.40711Z" fill="#C0BAB9"/>
<path d="M59.4837 2.73511V19.3411L55.1517 21.9631H47.0957V17.6311H54.6957V5.69911L47.0957 13.7551V7.10511L49.4137 4.44511H47.2477V0.113108H54.6957L59.4837 2.73511ZM37.9377 16.3771L45.3857 8.47311V15.0091L43.2197 17.6311H45.3857V21.9631H37.4817L33.1497 19.3411V2.73511L37.9377 0.113108H45.3857V4.44511H37.9377V16.3771Z" fill="#C0BAB9"/>
<path d="M65.84 11.4751L70.1721 8.85311H78.038V13.1471H70.4761V17.4791H77.886V21.9631H65.84V11.4751ZM65.84 6.99111V2.65911L70.1721 0.0371094H78.038V4.36911H70.6281V6.99111H65.84ZM92.0981 21.9631H79.9001V17.4791H92.0981V21.9631ZM87.1581 13.1471H79.7481V8.85311H87.1581V4.36911H79.7481V0.0371094H87.6141L92.0981 2.65911V10.5251L87.1581 13.1471Z" fill="#C0BAB9"/>
<path d="M111.14 0.0371094V21.9631L106.808 21.9251V5.24311L98.9416 8.51111V3.57111L106.808 0.0371094H111.14Z" fill="#C0BAB9"/>
</svg>
