<svg width="180" height="36" viewBox="0 0 180 36" fill="none" xmlns="http://www.w3.org/2000/svg">
<path d="M3.42866 2.36296L9.24266 22.237L15.1327 4.83296H17.1467L22.9987 22.237L29.6867 2.36296H32.9927L24.5567 26.265H21.4027L16.1967 10.951L10.8007 26.265H7.64666L0.0846558 2.36296H3.42866Z" fill="#C0BAB9"/>
<path d="M41.5171 7.64496C44.0505 7.64496 46.0898 8.4683 47.6351 10.115C49.2058 11.7616 49.9911 14.1176 49.9911 17.183C49.9911 20.223 49.2058 22.5663 47.6351 24.213C46.0898 25.8596 44.0505 26.683 41.5171 26.683C38.9838 26.683 36.9318 25.8596 35.3611 24.213C33.8158 22.5663 33.0431 20.223 33.0431 17.183C33.0431 14.1176 33.8158 11.7616 35.3611 10.115C36.9318 8.4683 38.9838 7.64496 41.5171 7.64496ZM46.9511 17.183C46.9511 15.0043 46.4951 13.307 45.5831 12.091C44.6711 10.8496 43.3285 10.229 41.5551 10.229C39.8071 10.229 38.4645 10.8496 37.5271 12.091C36.5898 13.307 36.1211 15.0043 36.1211 17.183C36.1211 19.3363 36.5645 21.0336 37.4511 22.275C38.3378 23.491 39.6551 24.099 41.4031 24.099C43.1765 24.099 44.5445 23.491 45.5071 22.275C46.4698 21.0336 46.9511 19.3363 46.9511 17.183Z" fill="#C0BAB9"/>
<path d="M61.1213 7.64496C63.6546 7.64496 65.6939 8.4683 67.2393 10.115C68.8099 11.7616 69.5953 14.1176 69.5953 17.183C69.5953 20.223 68.8099 22.5663 67.2393 24.213C65.6939 25.8596 63.6546 26.683 61.1213 26.683C58.5879 26.683 56.5359 25.8596 54.9653 24.213C53.4199 22.5663 52.6473 20.223 52.6473 17.183C52.6473 14.1176 53.4199 11.7616 54.9653 10.115C56.5359 8.4683 58.5879 7.64496 61.1213 7.64496ZM66.5553 17.183C66.5553 15.0043 66.0993 13.307 65.1873 12.091C64.2753 10.8496 62.9326 10.229 61.1593 10.229C59.4113 10.229 58.0686 10.8496 57.1313 12.091C56.1939 13.307 55.7253 15.0043 55.7253 17.183C55.7253 19.3363 56.1686 21.0336 57.0553 22.275C57.9419 23.491 59.2593 24.099 61.0073 24.099C62.7806 24.099 64.1486 23.491 65.1113 22.275C66.0739 21.0336 66.5553 19.3363 66.5553 17.183Z" fill="#C0BAB9"/>
<path d="M86.0834 10.799V0.386963H89.0474V26.265H86.6154L86.2354 23.225C85.6527 24.365 84.8801 25.2263 83.9174 25.809C82.9547 26.3916 81.9034 26.683 80.7634 26.683C78.4581 26.683 76.5201 25.7963 74.9494 24.023C73.4041 22.2496 72.6314 19.9443 72.6314 17.107C72.6314 14.2443 73.3914 11.9516 74.9114 10.229C76.4567 8.5063 78.3947 7.64496 80.7254 7.64496C83.0814 7.64496 84.8674 8.6963 86.0834 10.799ZM80.9154 10.305C79.4461 10.305 78.2047 10.9256 77.1914 12.167C76.2034 13.4083 75.7094 15.0676 75.7094 17.145C75.7094 19.2223 76.2161 20.8943 77.2294 22.161C78.2427 23.4023 79.4587 24.023 80.8774 24.023C82.2961 24.023 83.4994 23.5543 84.4874 22.617C85.5007 21.6543 86.0327 20.375 86.0834 18.779V15.815C86.0834 14.1176 85.5894 12.775 84.6014 11.787C83.6134 10.799 82.3847 10.305 80.9154 10.305Z" fill="#C0BAB9"/>
<path d="M91.9639 31.547C93.2052 32.5096 94.5099 32.991 95.8779 32.991C96.8912 32.991 97.7652 32.4843 98.4999 31.471C99.0319 30.7363 99.5132 29.6216 99.9439 28.127L100.476 26.265L93.0279 8.10096H96.3719L101.882 22.579L106.176 8.10096H109.216L102.414 29.875C101.831 31.7243 101.059 33.143 100.096 34.131C99.1586 35.119 97.9552 35.613 96.4859 35.613C95.0419 35.613 93.5346 35.1696 91.9639 34.283V31.547Z" fill="#C0BAB9"/>
<path d="M112.878 0.386963H115.88V26.265H112.878V0.386963Z" fill="#C0BAB9"/>
<path d="M133.637 14.485C133.637 12.8383 133.295 11.6603 132.611 10.951C131.927 10.2416 130.926 9.88696 129.609 9.88696C128.317 9.88696 127.265 10.153 126.455 10.685C125.669 11.1916 125.277 12.0023 125.277 13.117H121.971C121.971 10.3303 123.465 8.60763 126.455 7.94896C127.367 7.7463 128.355 7.64496 129.419 7.64496C131.673 7.64496 133.434 8.21496 134.701 9.35496C135.967 10.495 136.601 12.2303 136.601 14.561V26.265H134.017L133.713 23.225C132.598 25.5303 130.584 26.683 127.671 26.683C125.72 26.683 124.149 26.1383 122.959 25.049C121.793 23.9596 121.211 22.6043 121.211 20.983C121.211 19.3616 121.857 18.095 123.149 17.183C124.466 16.271 126.1 15.815 128.051 15.815C130.001 15.815 131.863 16.1443 133.637 16.803V14.485ZM133.637 18.703C131.838 18.1963 130.267 17.943 128.925 17.943C127.582 17.943 126.493 18.1836 125.657 18.665C124.821 19.1463 124.403 19.9063 124.403 20.945C124.403 23.225 125.695 24.365 128.279 24.365C129.748 24.365 131.002 23.8456 132.041 22.807C133.105 21.743 133.637 20.375 133.637 18.703Z" fill="#C0BAB9"/>
<path d="M145.4 11.597C146.591 8.9623 148.63 7.64496 151.518 7.64496C153.672 7.64496 155.344 8.3543 156.534 9.77296C157.75 11.1916 158.358 13.1296 158.358 15.587V26.265H155.394V15.587C155.394 13.839 154.976 12.5216 154.14 11.635C153.33 10.7483 152.164 10.305 150.644 10.305C149.124 10.305 147.896 10.9256 146.958 12.167C146.021 13.4083 145.527 15.131 145.476 17.335V26.265H142.474V8.10096H145.058L145.4 11.597Z" fill="#C0BAB9"/>
<path d="M176.163 10.799V0.386963H179.127V26.265H176.695L176.315 23.225C175.732 24.365 174.959 25.2263 173.997 25.809C173.034 26.3916 171.983 26.683 170.843 26.683C168.537 26.683 166.599 25.7963 165.029 24.023C163.483 22.2496 162.711 19.9443 162.711 17.107C162.711 14.2443 163.471 11.9516 164.991 10.229C166.536 8.5063 168.474 7.64496 170.805 7.64496C173.161 7.64496 174.947 8.6963 176.163 10.799ZM170.995 10.305C169.525 10.305 168.284 10.9256 167.271 12.167C166.283 13.4083 165.789 15.0676 165.789 17.145C165.789 19.2223 166.295 20.8943 167.309 22.161C168.322 23.4023 169.538 24.023 170.957 24.023C172.375 24.023 173.579 23.5543 174.567 22.617C175.58 21.6543 176.112 20.375 176.163 18.779V15.815C176.163 14.1176 175.669 12.775 174.681 11.787C173.693 10.799 172.464 10.305 170.995 10.305Z" fill="#C0BAB9"/>
</svg>
